<?xml version="1.0" encoding="utf-8"?>
<svg version="1.1" id="feedback-thumb" x="0px" y="0px" viewBox="-25 -25 1140 1574" enable-background="new 596.9167 0.0194 1565.0834 1639.8086" xmlns="http://www.w3.org/2000/svg">
  <path d="M 493.738 3.58 C 496.155 2.672 525.673 -2.296 533.796 1.275 C 537.818 3.044 543.886 2.867 548.272 3.994 C 554.118 5.496 559.957 6.944 565.695 8.831 C 585.526 15.355 604.149 26.428 620.002 39.95 C 635.489 53.161 648.813 68.833 658.567 86.742 C 668.88 105.676 674.223 125.943 679.509 146.676 C 684.947 168.007 685.906 191.127 686.062 213.054 C 686.22 235.148 684.706 258.173 679.783 279.698 C 675.067 300.324 670.233 320.325 662.511 340.119 C 654.387 360.942 643.259 380.741 633.294 400.714 C 623.663 420.017 614.448 439.489 605.123 458.936 C 596.089 477.774 587.167 497.719 580.994 517.706 C 574.904 537.426 569.502 558.025 570.446 578.861 C 570.747 585.491 571.488 599.874 577.539 604.154 C 580.584 606.307 586.317 605.097 589.752 605.026 C 596.129 604.894 602.502 604.635 608.874 604.362 C 655.03 602.382 701.343 602.564 747.536 602.62 C 793.149 602.675 838.704 602.947 884.241 605.866 C 906.747 607.31 929.714 608.253 952.006 611.774 C 972.114 614.949 991.555 620.37 1007.706 633.332 C 1023.403 645.928 1036.96 662.601 1048.645 678.878 C 1060.52 695.418 1071.875 713.8 1078.798 733.035 C 1082.016 741.977 1085.691 751.672 1086.676 761.168 C 1087.777 771.788 1085.711 780.425 1080.455 789.648 C 1070.324 807.429 1056.034 822.581 1044.966 839.774 C 1039.383 848.447 1035.273 857.057 1036.839 867.631 C 1038.414 878.26 1043.818 888.267 1049.01 897.523 C 1058.839 915.043 1070.53 931.647 1079.48 949.65 C 1083.594 957.926 1087.465 967.254 1086.64 976.681 C 1085.767 986.652 1079.744 995.661 1073.891 1003.46 C 1061.496 1019.978 1046.496 1034.366 1034.169 1050.943 C 1028.415 1058.679 1022.727 1067.11 1022.397 1077.09 C 1022.048 1087.67 1024.841 1098.007 1028.41 1107.873 C 1035.769 1128.22 1045.813 1148.219 1051.631 1169.044 C 1057.728 1190.862 1051.157 1208.759 1038.042 1226.426 C 1025.45 1243.391 1009.151 1257.406 994.207 1272.213 C 979.799 1286.488 967.053 1300.88 967.206 1322.239 C 967.284 1333.204 967.365 1344.169 967.471 1355.133 C 967.578 1366.183 968.914 1378.072 965.808 1388.833 C 960.319 1407.846 944.404 1424.961 931.071 1438.948 C 916.612 1454.117 900.434 1467.737 883.299 1479.781 C 866.07 1491.891 848.484 1500.295 828.105 1505.419 C 807.184 1510.679 785.164 1513.252 763.674 1515.101 C 673.106 1522.897 582.005 1517.508 491.353 1514.285 C 446.606 1512.695 401.679 1509.819 357.111 1505.44 C 346.838 1504.431 336.574 1504.007 326.291 1503.263 C 316.147 1502.528 305.777 1499.894 295.77 1498.059 C 274.717 1494.2 253.641 1490.361 232.632 1486.272 C 189.838 1477.944 146.873 1470.41 104.012 1462.42 C 82.396 1458.39 60.762 1454.466 39.138 1450.48 C 28.623 1448.542 18.105 1446.599 7.617 1444.516 C 4.404 1443.878 1.04 1443.439 0.441 1439.621 C -0.481 1433.745 0.328 1427.157 0.331 1421.212 C 0.42 1235.443 0.417 1049.673 0.418 863.904 C 0.418 852.758 0.418 841.612 0.418 830.466 C 0.418 827.754 -0.455 823.196 1.114 820.785 C 2.949 817.965 10.899 819.417 13.596 819.402 C 23.445 819.347 33.492 820.209 43.205 818.216 C 53.137 816.179 62.257 811.554 70.734 806.11 C 104.825 784.212 130.385 748.341 151.744 714.621 C 175.023 677.869 195.671 639.181 213.877 599.678 C 232.214 559.89 248.262 519.145 265.754 478.981 C 282.778 439.889 314.01 413.708 346.611 387.726 C 363.094 374.59 379.278 361.178 392.931 345.025 C 406.733 328.696 417.915 310.199 426.692 290.729 C 444.809 250.544 456.834 206.418 462.915 162.761 C 469.128 118.15 475.515 73.561 477.88 28.515 C 478.272 21.059 479.488 13.933 485.251 8.64 C 487.698 6.393 490.638 4.746 493.738 3.58 Z" />
</svg>
