<?xml version="1.0" encoding="utf-8"?>
<svg viewBox="0 0 1131 300" xmlns="http://www.w3.org/2000/svg">
  <g id="g2358" transform="matrix(0.635345, 0, 0, 0.635345, -0.000003, -0.000089)" style="">
    <path id="path2360" d="m115.16 154.04c0 15.34-13.97 31.75-32.086 31.75v258.84c0 36.74-50.081 36.74-50.081 0v-258.84c-17.64 0-32.993-13.58-32.993-33.93v-142.44c0-12.4 17.92-12.879 17.92 0.478v105.3h15v-106.26c0-11.396 17.25-12.128 17.25 0.479v105.78h15.5v-106.14c0-11.894 16.75-12.373 16.75 0.484v105.66h15.25v-106.14c0-11.769 17.5-12.248 17.5 0.484l-0.01 144.5z" style="fill: rgb(0, 129, 60); stroke-width: 0px;"/>
    <path id="path2362" d="m248.75 42.524v401.98c0 35.93-50.18 35.4-50.18 0v-159.49h-26.72v-242.49c0-56.441 76.9-56.441 76.9 0.004z" style="fill: rgb(0, 129, 60); stroke-width: 0px;"/>
  </g>
  <g id="layer1" transform="matrix(0.611545, 0, 0, 0.611545, 372.233709, -61.987954)" style="">
    <g id="g1882" transform="matrix(1.8176 0 0 1.8176 -240.31 -213.4)">
      <g id="g1884">
        <path id="path1886" d="m89.25 279.01c21.589 0 39.087-17.499 39.087-39.084 0-21.589-17.498-39.091-39.087-39.091-21.585 0-39.085 17.502-39.085 39.091 0 21.585 17.5 39.084 39.085 39.084z" style="fill: rgb(0, 129, 60); stroke-width: 0px;"/>
        <path id="path1888" d="m89.25 239.93" style="fill: rgb(0, 129, 60); stroke-width: 0px;"/>
      </g>
      <path id="path1890" d="m173.65 228.84h156.23c22.921 0 36.423 14.753 36.423 34.504v56.552h-192.66v-91.056z" style="fill: rgb(0, 129, 60); stroke-width: 0px;"/>
      <path id="path1892" d="m131.12 249.08v33.918h-60.069c-29 0.104-29.047 37.382 0 37.382h78.75c11.5 0 18.7-9.282 18.7-19.782v-51.518c0-28.222-37.381-28.222-37.381 0z" style="fill: rgb(0, 129, 60); stroke-width: 0px;"/>
      <path id="path1894" d="m42.702 196.26c0-30.78-42.702-30.78-42.702 0v246.81h43.651v-63.74h332.12v63.261h42.7v-190.63c0-32.482-43.174-32.482-43.174 0v76.088h-332.59v-131.79z" style="fill: rgb(0, 129, 60); stroke-width: 0px;"/>
    </g>
  </g>
  <g id="layer2" transform="matrix(1.065828, 0, 0, 1.065828, 711.651622, -46.53156)" style="">
    <path id="path2466" stroke="#000" d="m147.07 298.33c-10.83 9.91-10.93 21.12 4.79 23.04 12.67 1.56 16.33 0.36 17.4-11.14 0.38-4.1-2.46-11.7 0.92-19.86 4.52-10.9 4.4-23.21 1.66-29.13-4.16-9.03-14.14-15.7-11.76-25.62 1.48-6.15 12.59-8.86 16.56-15.57 6.71-11.33 7.81-25.21 15.14-21.81 4.74 2.19 7.77 14.68 15.47 21.54 8.91 7.96 22.2 10.55 21.36 15.59-2.63 15.73-13.44 9.22-17.49 26.35-1.49 6.32 4.76 28.17 2.48 46.05-1.11 8.67 4.34 16.14 14.8 14.29 10.36-1.82 14-1.15 15.37-9.02 1.16-6.66-26.39-3.12-12.13-31.07 7.02-13.77 13.89-33.94 18.35-46.33 5.59-15.5-11.02-34.35-23.91-41.53-15.45-8.62-15.61-9.59-9.54-32.49 2.94-11.1 8.86-33.31 20.31-20.98 8.01 8.64 17.4 21.2 30.69 13.63 12.94-7.38 22.56-18.92 35.33-26.23 9.43-5.4 20.79-25.15 8.81-31.856-13.17-7.364-22.25 11.166-30.2 19.876-7.28 7.98-25.2 21.4-30.12 7.89-4.61-12.66-15.79-18.97-27.27-20.11-10.19-1.02-20.16-8.991-10.05-18.87 10.19-9.952 8.5-33.268-6.92-39.401-13.73-5.466-32.62 0.979-36.25 16.934-3.26 14.322 11.12 24.084 13.07 35.326 2.59 15.001-22.6 4.421-31.69 10.171-9.25 5.86-18.14 7.84-28.29 13.15-16.74 8.74-22.46-9.26-31.749-17.33-9.156-7.956-31.915 10.58-18.33 17.15 12.998 6.29 26.028 12.58 35.189 23.81 8.69 10.66 25.05 11.65 31.74-1.56 7-13.84 28.08-6.04 28.16 8.46 0.05 10.55 8.7 23.37-0.06 30.68-8.61 7.2-19.09 12.32-25.36 20.82-9.35 12.66-11.31 32.66-2.76 43.98 4.15 5.48 4.34 16.7 6.17 26.95 1.82 10.23 5.29 19.47 0.11 24.22z" style="stroke-width: 0px; fill: rgb(0, 129, 60);"/>
  </g>
  <g id="layer3" transform="matrix(1.065828, 0, 0, 1.065828, 721.838146, -50.159379)" fill-rule="evenodd" style="">
    <path id="path2474" stroke="#000" d="m51.613 120.88l129.71-15.12s67.82 0.6 96.51 4.78c17.93 2.6 58.67 14.32 58.67 14.32l3.87-6.37s-46.54-14.68-67.17-17.5c-28.01-3.832-94.2-1.594-94.2-1.594l-129.7 13.524 2.313 7.96z" style="fill-rule: nonzero; stroke-width: 0px; fill: rgb(0, 129, 60);"/>
    <g id="g3252" transform="matrix(.98822 -.15305 .15305 .98822 -55.81 -83.48)">
      <rect id="rect2476" y="178.93" width="9.5427" x="67.594" height="78.728" style="fill-rule: nonzero; stroke-width: 0px; fill: rgb(0, 129, 60);"/>
      <rect id="rect3248" y="184.89" width="9.5427" x="50.895" height="66.799" style="fill-rule: nonzero; stroke-width: 0px; fill: rgb(0, 129, 60);"/>
      <rect id="rect3250" y="191.25" width="9.5427" x="34.99" height="54.076" style="fill-rule: nonzero; stroke-width: 0px; fill: rgb(0, 129, 60);"/>
    </g>
    <g id="g3257" transform="matrix(-.97678 -.21423 -.21423 .97678 457.39 -75.168)">
      <rect id="rect3259" y="178.93" width="9.5427" x="67.594" height="78.728" style="fill-rule: nonzero; stroke-width: 0px; fill: rgb(0, 129, 60);"/>
      <rect id="rect3261" y="184.89" width="9.5427" x="50.895" height="66.799" style="fill-rule: nonzero; stroke-width: 0px; fill: rgb(0, 129, 60);"/>
      <rect id="rect3263" y="191.25" width="9.5427" x="34.99" height="54.076" style="fill-rule: nonzero; stroke-width: 0px; fill: rgb(0, 129, 60);"/>
    </g>
  </g>
</svg>