<?xml version="1.0" encoding="utf-8"?>
<svg viewBox="-2.714 3.257 26.4 7.4" fill-rule="evenodd" image-rendering="optimizeQuality" shape-rendering="geometricPrecision" text-rendering="geometricPrecision" xmlns="http://www.w3.org/2000/svg">
  <path d="M 17.996 0.727 C 17.939 0.681 16.681 3.197 15.623 5.136 C 13.173 5.467 10.997 8.627 10.997 8.627 L 12.027 8.62 C 12.146 8.618 12.763 7.803 13.747 7.604 L 13.649 8.77 C 13.581 9.577 13.014 10.767 12.444 11.84 C 12.256 12.198 12.068 12.538 11.896 12.851 L 13.061 13.093 L 12.65 13.818 L 13.538 14.003 L 14.004 13.338 L 14.91 13.5 L 15.187 13.056 L 15.919 13.234 C 15.919 13.234 17.504 10.925 18.739 9.219 C 19.971 7.513 19.138 5.423 19.138 5.423 L 21.708 2.321 L 17.996 0.727 Z M 13.061 13.093 C 15.818 8.232 15 9.416 12.92 13.065 L 13.061 13.093 Z M 14.108 13.356 C 16.992 8.762 16.132 9.86 14.004 13.338 L 14.108 13.356 Z M 15.305 13.086 C 17.689 9.624 17.358 9.731 15.187 13.056 L 15.305 13.086 Z M 14.071 7.689 C 14.071 7.689 17.043 8.013 17.632 5.7 C 16.59 7.813 14.071 7.689 14.071 7.689 Z M 14.26 8.947 C 15.139 9.858 16.386 10.213 17.621 10.222 C 16.598 10.286 15.015 9.996 14.26 8.947 Z M 17.467 6.302 C 17.42 6.421 17.331 6.499 17.331 6.499 C 17.331 6.499 17.167 8.509 17.729 9.459 C 17.139 7.853 17.467 6.302 17.467 6.302 Z" style="fill: rgb(0, 129, 60);" transform="matrix(0.604571, 0.796551, -0.796551, 0.604571, 12.3326, -10.113392)"/>
  <path d="M 13.77 7.089 C 13.77 7.089 16.742 7.414 17.331 5.103 C 16.29 7.214 13.77 7.089 13.77 7.089 Z M 13.96 8.349 C 14.839 9.259 16.085 9.614 17.321 9.624 C 16.3 9.688 14.715 9.397 13.96 8.349 Z M 17.167 5.704 C 17.119 5.822 17.032 5.9 17.032 5.9 C 17.032 5.9 16.866 7.911 17.429 8.861 C 16.838 7.255 17.167 5.704 17.167 5.704 Z" fill="#fff" style="" transform="matrix(0.604571, 0.796551, -0.796551, 0.604571, 12.037234, -9.512403)"/>
  <path d="M 2.112 12.765 C 2.163 12.821 3.523 10.237 4.811 8.446 C 7.281 8.42 9.832 5.552 9.832 5.552 L 8.808 5.432 C 8.691 5.417 7.978 6.148 6.976 6.228 L 7.218 5.081 C 7.386 4.289 8.095 3.179 8.792 2.182 C 9.023 1.853 9.251 1.537 9.461 1.248 L 8.335 0.863 L 8.831 0.195 L 7.972 -0.097 L 7.429 0.507 L 6.55 0.233 L 6.22 0.638 L 5.516 0.372 C 5.516 0.372 3.657 2.469 2.222 4.01 C 0.789 5.552 1.358 7.729 1.358 7.729 L -1.375 10.727 L 2.112 12.765 Z M 8.335 0.863 C 8.335 0.863 6.577 3.225 6.211 3.792 C 5.842 4.357 6.297 3.825 6.297 3.825 L 8.469 0.911 L 8.335 0.863 Z M 7.327 0.474 C 7.327 0.474 5.539 2.666 5.17 3.233 C 4.802 3.801 5.234 3.262 5.234 3.262 L 7.429 0.507 L 7.327 0.474 Z M 6.106 0.597 C 6.106 0.597 4.585 2.308 4.218 2.873 C 3.849 3.441 4.302 2.906 4.302 2.906 L 6.22 0.638 L 6.106 0.597 Z" style="fill: rgb(0, 129, 60); stroke: rgb(255, 255, 255); vector-effect: non-scaling-stroke;" transform="matrix(0.604571, 0.796551, -0.796551, 0.604571, 6.717782, -0.863393)"/>
</svg>