<?xml version="1.0" standalone="no"?>
<!DOCTYPE svg PUBLIC "-//W3C//DTD SVG 20010904//EN"
 "http://www.w3.org/TR/2001/REC-SVG-20010904/DTD/svg10.dtd">
<svg version="1.0" xmlns="http://www.w3.org/2000/svg"
 width="1970.000000pt" height="1970.000000pt" viewBox="0 0 1970.000000 1970.000000"
 preserveAspectRatio="xMidYMid meet">
<metadata>
Created by potrace 1.11, written by Peter Selinger 2001-2013
</metadata>
<g transform="translate(0.000000,1970.000000) scale(0.100000,-0.100000)"
fill="#000000" stroke="none">
<path d="M9877 17844 c-1 -1 -51 -5 -112 -8 -168 -10 -283 -27 -471 -72 -121
-28 -143 -29 -255 -9 -154 26 -222 30 -524 30 -264 0 -426 -7 -475 -20 -8 -2
-35 -7 -60 -10 -42 -5 -59 -8 -120 -20 -14 -3 -41 -8 -60 -11 -19 -3 -53 -10
-75 -16 -22 -5 -51 -12 -65 -15 -60 -10 -226 -57 -350 -99 -143 -49 -153 -50
-270 -38 -97 11 -677 11 -755 1 -33 -4 -82 -10 -110 -12 -171 -19 -461 -84
-658 -149 -459 -152 -883 -391 -1214 -684 -83 -74 -84 -74 -136 -71 -240 13
-350 -5 -547 -89 -339 -145 -779 -495 -1180 -941 -221 -246 -643 -646 -765
-726 -284 -185 -542 -518 -725 -935 -41 -93 -98 -240 -105 -270 -12 -56 -72
-176 -135 -270 -27 -41 -95 -180 -125 -255 -15 -38 -31 -79 -36 -90 -32 -73
-61 -228 -63 -335 -4 -202 23 -294 127 -442 9 -14 9 -22 -2 -40 -65 -103 -121
-244 -137 -348 -10 -66 -12 -284 -3 -344 16 -99 21 -122 60 -241 92 -280 305
-634 520 -860 69 -73 72 -80 93 -180 37 -178 73 -281 156 -450 225 -454 700
-844 1335 -1095 183 -72 488 -169 615 -195 14 -2 54 -11 90 -20 83 -19 205
-44 250 -51 19 -2 49 -8 65 -11 17 -4 34 -7 38 -7 5 -1 16 -23 26 -51 39 -111
99 -197 224 -327 78 -81 77 -79 92 -198 7 -64 10 -78 34 -146 11 -35 18 -74
15 -90 -40 -220 51 -417 292 -634 75 -68 164 -131 320 -225 165 -101 184 -114
305 -210 85 -67 92 -73 204 -152 274 -193 688 -404 980 -497 155 -49 360 -100
485 -121 19 -3 46 -8 60 -10 14 -3 35 -7 46 -9 64 -12 535 -26 999 -29 115 -1
295 8 358 18 12 2 45 6 72 10 28 3 66 9 85 11 19 3 76 11 125 19 50 8 106 17
125 20 19 2 46 7 60 9 13 3 42 8 64 12 22 3 43 7 46 9 3 1 27 6 54 9 27 4 52
9 56 11 3 2 24 6 46 9 22 4 51 9 64 12 14 3 55 11 93 18 l67 14 20 -28 c11
-16 20 -33 20 -38 0 -17 100 -211 158 -307 165 -274 383 -522 619 -706 59 -46
115 -92 123 -103 26 -33 160 -248 205 -331 7 -11 102 -175 211 -365 110 -190
249 -439 309 -555 59 -115 125 -241 145 -280 79 -147 207 -402 229 -455 12
-30 26 -64 31 -75 5 -11 17 -40 26 -65 108 -267 296 -517 479 -635 76 -49 185
-101 251 -121 67 -19 215 -22 279 -6 22 6 62 13 90 17 107 13 172 61 200 146
19 55 14 234 -9 319 -36 139 -155 496 -195 585 -14 32 -87 243 -115 334 -26
83 -33 141 -18 141 4 0 84 -18 177 -41 94 -22 186 -42 205 -45 19 -3 73 -14
119 -25 67 -16 134 -20 325 -24 346 -6 458 -12 565 -29 124 -20 350 -25 501
-12 47 4 87 9 90 11 3 2 29 6 59 10 52 7 68 9 121 20 14 2 40 7 57 10 18 3 61
12 95 20 35 8 74 16 88 19 26 5 103 22 230 51 174 39 434 118 574 174 381 153
728 393 931 647 22 27 42 51 45 54 16 15 62 84 98 145 39 66 106 215 97 215
-3 0 -1 10 4 23 5 12 12 45 15 72 5 34 16 61 37 85 128 150 166 219 193 353
35 170 37 211 14 307 -22 92 -27 114 -34 165 l-6 40 148 1 c140 1 308 10 382
20 17 2 49 6 70 9 20 3 48 7 62 10 14 3 34 7 45 9 101 20 356 100 415 131 14
7 59 30 100 51 217 108 448 300 623 516 174 216 345 554 451 893 25 81 64 229
73 275 2 14 13 64 23 111 11 47 22 104 25 125 2 21 7 48 9 59 2 12 8 48 12 80
4 33 9 62 9 65 1 3 5 46 9 95 5 50 10 99 12 109 17 95 23 674 10 926 -7 118
-9 171 -21 415 -2 55 -6 125 -9 155 -3 30 -8 91 -11 135 -4 44 -8 94 -10 110
-2 17 -9 73 -15 125 -77 654 -259 1185 -506 1475 -29 34 -49 72 -64 120 -71
230 -123 361 -207 525 -163 316 -347 540 -535 651 -49 29 -93 58 -98 64 -10
12 -14 47 -25 190 -6 79 -12 127 -21 169 -3 11 -7 35 -10 51 -21 124 -114 371
-191 508 -18 33 -33 61 -33 63 0 8 -115 172 -179 254 -75 96 -250 277 -361
371 -96 82 -217 169 -372 268 l-123 79 -25 73 c-56 164 -158 311 -358 518 -40
41 -112 129 -159 196 -303 425 -667 726 -1213 1007 -128 65 -398 188 -415 188
-3 0 -25 8 -48 19 -48 21 -171 66 -302 109 -222 73 -359 110 -593 162 -77 17
-174 47 -230 71 -365 156 -705 251 -1047 294 -27 4 -63 8 -80 11 -16 2 -167 6
-334 9 l-304 5 -81 41 c-184 94 -463 192 -636 224 -14 3 -36 7 -50 10 -78 16
-217 35 -298 41 -86 6 -381 11 -385 8z"/>
</g>
</svg>
